<?xml version="1.0" standalone="no"?>
<!DOCTYPE svg PUBLIC "-//W3C//DTD SVG 20010904//EN"
 "http://www.w3.org/TR/2001/REC-SVG-20010904/DTD/svg10.dtd">
<svg version="1.0" xmlns="http://www.w3.org/2000/svg"
 width="1500.000000pt" height="1500.000000pt" viewBox="0 0 1500.000000 1500.000000"
 preserveAspectRatio="xMidYMid meet">
<metadata>
Created by potrace 1.16, written by Peter Selinger 2001-2019
</metadata>
<g transform="translate(0.000000,1500.000000) scale(0.100000,-0.100000)"
fill="#000000" stroke="none">
<path d="M1185 9419 c-134 -20 -276 -131 -327 -256 l-23 -58 0 -1605 0 -1605
34 -69 c59 -121 170 -208 299 -235 76 -16 12588 -16 12664 0 129 27 240 114
299 235 l34 69 0 1605 0 1605 -23 58 c-33 80 -125 177 -206 217 -34 17 -91 34
-131 40 -89 12 -12533 11 -12620 -1z m4107 -609 c37 -11 80 -34 102 -52 l37
-33 -35 -34 -36 -35 -28 27 c-70 67 -209 62 -285 -11 -98 -92 -92 -270 10
-348 120 -91 306 -43 338 89 l7 27 -106 0 -106 0 0 45 0 45 155 0 155 0 0 -58
c0 -84 -25 -148 -80 -203 -65 -65 -141 -92 -240 -87 -92 6 -157 36 -217 101
-53 57 -70 92 -81 160 -28 177 65 327 229 371 74 20 106 19 181 -4z m2733 -14
c64 -29 117 -81 152 -149 23 -45 27 -64 28 -142 0 -79 -3 -97 -28 -147 -106
-216 -411 -240 -547 -43 -87 127 -73 304 33 413 97 100 235 126 362 68z
m-2065 -31 l0 -45 -135 0 -135 0 0 -85 0 -85 125 0 125 0 0 -45 0 -44 -122 -3
-123 -3 -3 -82 -3 -83 136 0 135 0 0 -50 0 -50 -185 0 -185 0 0 310 0 310 185
0 185 0 0 -45z m500 0 l0 -45 -85 0 -85 0 0 -265 0 -265 -50 0 -50 0 0 265 0
265 -85 0 -85 0 0 45 0 45 220 0 220 0 0 -45z m370 -266 l0 -310 -47 3 -48 3
-3 308 -2 307 50 0 50 0 0 -311z m510 266 l0 -44 -82 -3 -83 -3 -3 -263 -2
-263 -48 3 -47 3 -3 263 -2 262 -80 0 -80 0 0 45 0 45 215 0 215 0 0 -45z
m1204 -170 l131 -209 3 212 2 212 50 0 50 0 0 -310 0 -310 -48 0 -47 0 -143
230 c-79 127 -144 230 -145 230 -1 0 -2 -102 -2 -227 l0 -228 -47 -3 -48 -3 0
311 0 311 57 -3 56 -3 131 -210z m-6561 164 c23 -12 328 -184 677 -382 349
-198 691 -391 760 -430 554 -310 583 -328 610 -372 38 -62 21 -141 -42 -188
-18 -14 -145 -88 -283 -166 l-250 -141 -210 210 -210 210 -622 -622 -622 -622
-21 46 c-20 46 -20 55 -18 1215 l3 1168 22 36 c13 20 33 41 45 47 39 18 115
14 161 -9z m3681 -974 c38 -8 99 -28 135 -45 75 -35 171 -104 171 -123 0 -7
-27 -39 -59 -71 l-59 -58 -39 30 c-177 142 -444 128 -612 -33 -137 -130 -185
-336 -121 -509 68 -180 219 -297 405 -313 201 -17 390 88 443 246 12 36 22 75
22 88 l0 23 -215 0 -215 0 0 90 0 90 304 0 c268 0 305 -2 310 -16 11 -29 6
-178 -9 -249 -18 -86 -71 -194 -125 -257 -56 -65 -171 -139 -261 -169 -64 -21
-92 -24 -209 -24 -120 1 -144 4 -216 28 -97 32 -211 104 -276 174 -196 211
-238 494 -113 744 135 267 446 416 739 354z m3536 -660 l0 -626 -92 3 -93 3
-3 623 -2 622 95 0 95 0 0 -625z m1912 588 c134 -63 217 -180 226 -319 6 -93
-11 -160 -58 -234 -44 -67 -109 -119 -190 -152 -48 -19 -79 -23 -235 -28
l-180 -5 -3 -238 -2 -238 -93 3 -92 3 -3 623 -2 623 282 -3 283 -3 67 -32z
m518 -588 l0 -626 -92 3 -93 3 -3 623 -2 622 95 0 95 0 0 -625z m-4840 176
c236 -91 336 -365 219 -599 -109 -220 -416 -291 -626 -146 -91 63 -153 165
-172 284 -34 214 97 415 310 475 73 20 197 14 269 -14z m885 14 c310 -81 420
-469 199 -705 -71 -76 -168 -121 -277 -127 -143 -9 -250 31 -342 128 -79 83
-108 151 -113 265 -7 146 32 248 127 337 109 102 260 140 406 102z m932 -14
c28 -13 59 -31 69 -42 24 -27 34 -24 34 11 l0 31 88 -3 87 -3 0 -420 c0 -449
-3 -480 -52 -578 -36 -72 -88 -124 -162 -160 -63 -31 -71 -32 -186 -32 -113 0
-124 2 -180 29 -67 33 -149 110 -182 172 l-23 41 75 32 c41 17 79 31 85 31 5
0 16 -12 24 -27 37 -71 113 -113 203 -113 95 1 164 43 197 120 15 37 33 180
22 180 -3 0 -26 -15 -50 -34 -164 -125 -436 -35 -542 179 -118 240 17 540 273
605 59 15 162 6 220 -19z m1241 -7 c31 -15 80 -51 107 -79 50 -51 120 -177
112 -199 -3 -7 -129 -64 -281 -126 -152 -63 -276 -117 -276 -121 0 -5 15 -25
32 -45 89 -101 258 -100 348 2 17 20 34 34 39 32 23 -9 131 -84 131 -91 0 -42
-125 -139 -217 -167 -161 -50 -327 -8 -436 109 -221 236 -114 634 190 711 69
17 188 5 251 -26z m2405 10 c82 -32 138 -82 177 -158 l35 -69 3 -283 3 -284
-90 0 -91 0 0 47 0 47 -42 -41 c-68 -65 -100 -77 -203 -78 -76 0 -98 4 -145
26 -64 30 -112 75 -142 133 -30 57 -30 165 0 222 73 140 290 208 475 148 27
-9 50 -14 52 -12 3 2 0 20 -5 39 -19 69 -99 119 -189 119 -64 0 -98 -13 -141
-55 l-35 -34 -75 32 c-41 17 -77 32 -80 34 -2 2 5 20 15 40 28 51 98 104 174
130 56 20 80 23 161 19 59 -2 113 -11 143 -22z m465 -86 c130 -320 186 -448
193 -441 4 4 53 124 109 266 l102 257 104 0 c103 0 103 0 95 -22 -31 -80 -495
-1135 -503 -1145 -13 -16 -188 -18 -188 -3 0 5 41 101 91 211 77 171 89 205
81 228 -11 28 -310 709 -318 723 -3 4 41 8 98 8 l103 0 33 -82z"/>
<path d="M7814 8720 c-53 -17 -111 -82 -130 -146 -45 -155 53 -296 205 -296
70 0 99 12 150 57 103 93 89 278 -27 359 -34 24 -54 31 -105 33 -34 1 -76 -2
-93 -7z"/>
<path d="M10670 7364 l0 -216 163 4 c151 3 165 5 207 28 128 72 148 250 39
343 -56 48 -97 57 -263 57 l-146 0 0 -216z"/>
<path d="M6540 7139 c-58 -26 -87 -53 -115 -109 -63 -126 -27 -272 86 -347 94
-62 244 -33 308 60 41 61 54 110 49 181 -15 176 -178 283 -328 215z"/>
<path d="M7462 7135 c-87 -44 -133 -124 -134 -230 -1 -112 67 -215 160 -246
97 -32 221 15 277 105 27 45 30 57 30 135 0 96 -16 140 -68 192 -43 43 -84 61
-152 66 -51 4 -68 0 -113 -22z"/>
<path d="M8393 7135 c-92 -46 -138 -135 -131 -254 7 -127 92 -221 207 -229 77
-6 125 11 175 62 68 68 92 171 62 270 -22 72 -61 122 -119 151 -67 33 -127 33
-194 0z"/>
<path d="M9590 7128 c-43 -26 -60 -45 -83 -89 -18 -35 -27 -67 -25 -87 l3 -31
179 75 c99 41 182 76 184 78 10 11 -23 48 -58 66 -62 32 -134 27 -200 -12z"/>
<path d="M12063 6879 c-83 -16 -130 -53 -140 -113 -7 -44 12 -77 60 -100 112
-52 262 21 298 146 8 28 6 31 -34 48 -51 22 -128 30 -184 19z"/>
</g>
</svg>
